<svg xmlns="http://www.w3.org/2000/svg" width="233" height="45" viewBox="0 0 233 45" fill="none"><g filter="url(#filter0_i_42_3)"><path d="M22.5 0L27.5516 15.5471H43.8988L30.6736 25.1558L35.7252 40.7029L22.5 31.0942L9.27483 40.7029L14.3264 25.1558L1.10123 15.5471H17.4484L22.5 0Z" fill="#FCAF3B"></path><path d="M69.5 0L74.5516 15.5471H90.8988L77.6736 25.1558L82.7252 40.7029L69.5 31.0942L56.2748 40.7029L61.3264 25.1558L48.1012 15.5471H64.4484L69.5 0Z" fill="#FCAF3B"></path><path d="M116.5 0L121.552 15.5471H137.899L124.674 25.1558L129.725 40.7029L116.5 31.0942L103.275 40.7029L108.326 25.1558L95.1012 15.5471H111.448L116.5 0Z" fill="#FCAF3B"></path><path d="M163.5 0L168.552 15.5471H184.899L171.674 25.1558L176.725 40.7029L163.5 31.0942L150.275 40.7029L155.326 25.1558L142.101 15.5471H158.448L163.5 0Z" fill="#FCAF3B"></path><path d="M210.5 0L215.552 15.5471H231.899L218.674 25.1558L223.725 40.7029L210.5 31.0942L197.275 40.7029L202.326 25.1558L189.101 15.5471H205.448L210.5 0Z" fill="#FCAF3B"></path></g><defs><filter id="filter0_i_42_3" x="0" y="0" width="234" height="47" filterUnits="userSpaceOnUse" color-interpolation-filters="sRGB"><feGaussianBlur stdDeviation="1.5"></feGaussianBlur></filter></defs></svg>