<?xml version="1.0" encoding="UTF-8"?>
<svg id="Layer_1" data-name="Layer 1" xmlns="http://www.w3.org/2000/svg" viewBox="0 0 80 80">
  <path d="M21.38,43.66c2.84-9.03,5.35-16.89,6.58-21.83h.07c1.21,4.5,3.48,11.26,7.04,21.83h-13.69Zm43.42,3.5c0,4.97-.82,9.57-7.43,9.57-3.75,0-5.41-2.29-5.41-5.02,0-3.62,2.32-5.54,8.6-5.54h4.25v.99Zm10.15,6.42v-15.82c0-8.95-5.48-12.89-15.56-12.95-11.43-.06-15.56,5.34-16.12,12.03h9.9c.48-2.73,1.43-4.6,5.84-4.6,4.82,0,5.79,2.63,5.79,5.31v2.3h-5.37c-5.97,0-10.72,1.16-13.83,3.59l-10.42-29.44h-13.6L4.54,64.1H15.19l3.91-11.57h18.3l4.12,11.57h11.25c6.66,0,10.85-2.37,12.21-4.48,.02,.94,.23,2.93,.53,3.67h9.95c-.22-.9-.51-6.14-.51-9.71Z"/>
</svg>