<?xml version="1.0" encoding="UTF-8"?>
<svg id="Layer_1" data-name="Layer 1" xmlns="http://www.w3.org/2000/svg" viewBox="0 0 80 80">
  <path d="M43.39,54.7l-12.05,5.61c-1.52-1.83-3.58-3.96-6.24-6.07-2.53-2.01-4.96-3.47-7.02-4.52,.94-4.33,1.87-8.66,2.81-12.99,.25-1.15,1.03-2.12,2.1-2.61l25.78-11.66-10.34,12.95c-2.35-.86-5.2,.23-6.16,2.98-.48,1.38-.26,2.96,.59,4.15,1.95,2.75,5.74,2.71,7.67,.29,1.3-1.63,1.35-3.88,.27-5.54l10.34-12.95-5.67,27.72c-.24,1.16-1.01,2.13-2.08,2.63Z"/>
  <path d="M27.72,65.47c.42-.7,1.09-1.8,1.99-3.12-1.48-1.78-3.45-3.82-5.96-5.84l-.28-.22c-2.53-2.01-4.96-3.47-7.02-4.52-1.09,1.17-2.02,2.07-2.61,2.63-2.96,2.81-4.43,3.65-5.38,5.79-.2,.45-.33,.87-.43,1.25-.17,.66,.08,1.35,.61,1.78l11.62,9.28c.53,.43,1.26,.52,1.87,.21,.35-.18,.73-.41,1.12-.7,1.88-1.39,2.38-3.02,4.46-6.53Zm-7.58,3.61l-8.14-6.5c-.79-.63-.93-1.79-.29-2.59s1.8-.92,2.59-.29l8.14,6.5c.79,.63,.92,1.8,.29,2.59s-1.8,.92-2.59,.29Z"/>
  <path d="M68.68,21.68c-1.61-1.92-3.49-3.08-5.13-3.79l.65-.77c1.13-1.32,.99-3.3-.35-4.44l-5.61-4.81c-.59-.5-1.32-.75-2.04-.75-.89,0-1.77,.38-2.4,1.1l-4.8,5.61c-1.13,1.32-.98,3.31,.35,4.45l5.61,4.8c.6,.51,1.32,.77,2.06,.77,.88,0,1.77-.38,2.39-1.11l1.25-1.46c1.36,.41,3.27,1.27,4.82,3.1,2.09,2.49,2.88,6.07,1.97,8.93-.7,2.21-2.24,3.18-4.37,4.52-1.38,.88-2.97,1.87-4.4,3.36-4.96,5.1-6.18,13.9-3.62,26.17l4.11-.85c-2.25-10.83-1.42-18.37,2.51-22.4,1.1-1.12,2.33-1.91,3.64-2.73,2.33-1.47,4.97-3.12,6.14-6.81,1.34-4.25,.26-9.31-2.77-12.91Zm-11.44-.79c-.07,.08-.17,.1-.23,.1-.12,0-.18-.05-.2-.07l-5.61-4.8c-.13-.12-.15-.3-.03-.43l4.8-5.61c.07-.09,.17-.1,.23-.1,.12,0,.18,.05,.2,.07l5.61,4.8c.06,.05,.09,.13,.1,.21,0,.08-.02,.16-.07,.22l-4.8,5.61Z"/>
</svg>