<?xml version="1.0" encoding="UTF-8"?>
<svg id="Layer_1" data-name="Layer 1" xmlns="http://www.w3.org/2000/svg" viewBox="0 0 80 80">
  <path d="M40.45,44.31c-1,0-1.99-.49-2.58-1.39l-7.9-11.94c-.94-1.42-.55-3.34,.87-4.28,1.43-.94,3.34-.55,4.28,.87l7.9,11.94c.94,1.42,.55,3.34-.87,4.28-.53,.35-1.12,.51-1.7,.51Z"/>
  <path d="M40,70.19c-16.64,0-30.19-13.54-30.19-30.19S23.36,9.81,40,9.81s30.19,13.54,30.19,30.19-13.54,30.19-30.19,30.19Zm0-52.24c-12.16,0-22.05,9.89-22.05,22.05s9.89,22.05,22.05,22.05,22.05-9.89,22.05-22.05-9.89-22.05-22.05-22.05Z"/>
</svg>