<?xml version="1.0" encoding="UTF-8"?>
<svg id="Layer_1" data-name="Layer 1" xmlns="http://www.w3.org/2000/svg" viewBox="0 0 80 80">
  <path d="M39.02,8.64c-8.06,.94-14.73,7.29-16,15.31-.94,6,1,11.57,4.65,15.54,3.42,3.7,5.04,8.72,5.04,13.77v1.17c0,.81,.32,1.6,.93,2.15,1.33,1.24,4.03,3.16,7.83,3.08,3.54-.06,6.05-1.85,7.34-3.04,.62-.57,.96-1.36,.96-2.19v-1.38c0-5.22,2.12-10.12,5.51-14.1,2.75-3.22,4.41-7.42,4.41-11.99,0-10.91-9.48-19.62-20.69-18.32Zm15.41,18.53h-.03c-1.05,0-1.9-.84-1.93-1.89-.01-.89-.24-4.01-2.73-6.52-2.37-2.4-5.23-2.76-6.36-2.8-1.05-.05-1.88-.94-1.84-1.99,.04-1.06,.93-1.88,1.99-1.85,1.57,.06,5.6,.57,8.94,3.94,3.4,3.44,3.82,7.55,3.84,9.16,.01,1.05-.84,1.93-1.89,1.94Z"/>
  <path d="M41.36,65.81h-.07c-4.66-.03-7.75-2.55-8.87-3.63-.57-.55-.58-1.46-.03-2.03,.56-.57,1.47-.58,2.03-.03,.67,.65,3.16,2.79,6.88,2.81h.05c3.51,0,5.89-1.84,6.75-2.64,.58-.54,1.49-.5,2.03,.08,.54,.58,.5,1.49-.08,2.03-1.11,1.03-4.18,3.41-8.7,3.41Z"/>
  <path d="M41.4,71.49h-.09c-4.16-.03-7.24-1.74-8.7-2.76-.65-.45-.81-1.35-.36-2,.45-.65,1.35-.81,2-.36,1.19,.83,3.7,2.23,7.08,2.25,.02,0,.05,0,.07,0,3.27,0,5.72-1.29,6.89-2.07,.66-.43,1.55-.25,1.99,.41,.44,.66,.25,1.55-.41,1.99-1.45,.95-4.46,2.55-8.48,2.55Z"/>
</svg>