<?xml version="1.0" encoding="UTF-8"?>
<svg id="Layer_1" data-name="Layer 1" xmlns="http://www.w3.org/2000/svg" viewBox="0 0 80 80">
  <path d="M40,14.68l-20.61,8.32V57l20.61,8.32,20.61-8.32V23l-20.61-8.32Zm15.17,19.76c-2.77,2.11-5.43,4.43-7.9,6.88-2.68,2.65-5.22,5.51-7.51,8.5-.53,.71-1.39,1.13-2.28,1.13s-1.74-.42-2.28-1.13c-1.43-1.87-3.04-3.65-4.74-5.27-1.22-1.18-2.53-2.28-3.88-3.31-1.21-.94-1.44-2.67-.52-3.89,.94-1.22,2.67-1.45,3.89-.53,1.51,1.16,2.97,2.41,4.34,3.72,1.1,1.05,2.15,2.15,3.16,3.3,1.86-2.25,3.84-4.41,5.91-6.47,2.65-2.61,5.48-5.07,8.44-7.33,1.22-.94,2.96-.7,3.89,.52,.94,1.21,.7,2.96-.52,3.89Z"/>
  <path d="M40,10.76l24.03,9.62V59.63l-24.03,9.62-24.03-9.62V20.37l24.03-9.62m-1.06-2.65L14.91,17.72h0c-1.08,.43-1.79,1.48-1.79,2.65h0V59.63h0c0,1.17,.71,2.22,1.79,2.65h0s24.03,9.62,24.03,9.62h0c.68,.27,1.44,.27,2.12,0h0s24.03-9.62,24.03-9.62h0c1.08-.43,1.79-1.48,1.79-2.65h0V20.37h0c0-1.17-.71-2.22-1.79-2.65h0s-24.03-9.62-24.03-9.62h0c-.68-.27-1.44-.27-2.12,0h0Z"/>
</svg>