<?xml version="1.0" encoding="UTF-8"?>
<svg id="Layer_1" data-name="Layer 1" xmlns="http://www.w3.org/2000/svg" viewBox="0 0 80 80">
  <path d="M65.71,35.25l-2.69-2.69c-13.22-13.21-34.72-13.21-47.94,0l-2.69,2.69c-3,3-3,7.87,0,10.87l2.69,2.69c6.61,6.61,15.29,9.91,23.97,9.91s17.36-3.31,23.97-9.91l2.68-2.69c1.46-1.45,2.26-3.38,2.26-5.44s-.8-3.98-2.25-5.43Zm-26.7-1.89c2.78,0,5.04,2.26,5.04,5.04s-2.26,5.04-5.04,5.04-5.04-2.26-5.04-5.04,2.26-5.04,5.04-5.04Zm23.04,9.11l-2.68,2.69c-11.21,11.2-29.44,11.2-40.64,0l-2.69-2.69c-.98-.99-.98-2.59,0-3.57l2.69-2.69c3.76-3.76,8.31-6.26,13.12-7.48-2.96,2.19-4.88,5.71-4.88,9.67,0,6.64,5.4,12.04,12.04,12.04s12.04-5.4,12.04-12.04c0-3.98-1.94-7.51-4.92-9.71,4.85,1.23,9.45,3.73,13.24,7.52l2.69,2.69c.47,.48,.73,1.11,.73,1.78s-.26,1.31-.74,1.79Z"/>
  <path d="M12.27,26.74c-.66,0-1.32-.25-1.83-.76l-5.33-5.33c-1.01-1.01-1.01-2.64,0-3.65s2.64-1.01,3.65,0l5.33,5.33c1.01,1.01,1.01,2.64,0,3.65-.5,.5-1.17,.76-1.83,.76Z"/>
  <path d="M23.66,19.77c-.94,0-1.84-.51-2.3-1.41l-3.43-6.7c-.65-1.27-.15-2.82,1.12-3.47,1.27-.65,2.82-.15,3.47,1.12l3.43,6.7c.65,1.27,.15,2.82-1.12,3.47-.38,.19-.78,.28-1.17,.28Z"/>
  <path d="M73.05,63.75c-.66,0-1.32-.25-1.83-.76l-5.33-5.33c-1.01-1.01-1.01-2.64,0-3.65s2.64-1.01,3.65,0l5.33,5.33c1.01,1.01,1.01,2.64,0,3.65-.5,.5-1.17,.76-1.83,.76Z"/>
  <path d="M59.78,72.1c-.94,0-1.84-.51-2.3-1.41l-3.43-6.71c-.65-1.27-.15-2.82,1.12-3.47,1.27-.65,2.82-.15,3.47,1.12l3.43,6.71c.65,1.27,.15,2.82-1.12,3.47-.38,.19-.78,.28-1.17,.28Z"/>
</svg>