<?xml version="1.0" encoding="UTF-8"?>
<svg id="Layer_1" data-name="Layer 1" xmlns="http://www.w3.org/2000/svg" viewBox="0 0 80 80">
  <path d="M54.17,24.78c0,7.82-6.35,14.17-14.17,14.17-4.27,0-8.1-1.9-10.69-4.88-.68-.78-1.27-1.62-1.76-2.53-.33-.6-.61-1.23-.84-1.88-.08-.23-.17-.47-.23-.7-.07-.21-.13-.41-.18-.63-.07-.23-.11-.45-.16-.69-.04-.19-.07-.38-.1-.56-.05-.28-.08-.56-.11-.84-.02-.18-.04-.36-.04-.54-.03-.3-.04-.6-.04-.91,0-.27,0-.54,.03-.81,0-.11,0-.23,.02-.34,.02-.23,.05-.46,.08-.69,.89-6.96,6.84-12.33,14.04-12.33,7.82,0,14.17,6.35,14.17,14.17Z"/>
  <path d="M61.46,58.03c0,6.27-9.6,11.35-21.46,11.35-.79,0-1.57-.02-2.34-.07-1.03-.05-2.04-.15-3.03-.29-.62-.09-1.22-.19-1.82-.3-.2-.03-.38-.07-.58-.12-.2-.04-.4-.08-.59-.12-.36-.08-.72-.16-1.08-.26-.27-.07-.54-.14-.8-.22-.28-.08-.55-.16-.82-.25-.05-.02-.1-.03-.15-.05-.23-.08-.45-.15-.67-.22-.07-.03-.15-.05-.23-.08-.24-.08-.48-.18-.72-.27,0,0-.02,0-.03-.02-.25-.1-.5-.2-.74-.31-.29-.12-.56-.25-.84-.38-.26-.12-.51-.25-.75-.38-.24-.13-.48-.26-.71-.39s-.46-.27-.68-.41c-.43-.29-.85-.57-1.23-.87-.2-.15-.38-.31-.56-.46-.36-.31-.68-.63-.99-.97-.15-.16-.29-.33-.43-.5-.13-.16-.25-.32-.37-.49-.02-.02-.03-.04-.04-.06-.07-.1-.15-.21-.21-.32-.07-.11-.13-.21-.18-.32-.08-.13-.15-.27-.22-.41-.08-.17-.15-.34-.22-.51-.08-.21-.15-.42-.21-.63-.05-.16-.09-.33-.12-.5-.02-.1-.04-.2-.05-.31-.02-.11-.03-.21-.04-.32-.02-.19-.02-.36-.02-.55,0-.16,0-.32,.02-.47,0-.07,.02-.14,.02-.21h0c.02-.17,.04-.32,.07-.48,.03-.19,.07-.37,.12-.55,0,0,0-.02,0-.02,.11-.38,.25-.75,.43-1.11,.08-.16,.17-.33,.26-.49,.11-.19,.24-.39,.37-.57,.11-.15,.23-.32,.35-.47,.2-.26,.43-.53,.69-.78,3.54-3.68,10.77-6.2,19.11-6.2,11.85,0,21.46,5.09,21.46,11.35Z"/>
</svg>