<?xml version="1.0" encoding="UTF-8"?>
<svg id="Layer_1" data-name="Layer 1" xmlns="http://www.w3.org/2000/svg" viewBox="0 0 80 80">
  <path d="M43.42,15.08l5.77,11.69c.56,1.13,1.63,1.91,2.87,2.09l12.9,1.87c3.13,.46,4.38,4.3,2.12,6.51l-9.34,9.1c-.9,.88-1.31,2.14-1.1,3.38l2.2,12.85c.53,3.12-2.74,5.5-5.54,4.02l-11.54-6.07c-1.11-.58-2.44-.58-3.55,0l-11.54,6.07c-2.8,1.47-6.07-.91-5.54-4.02l2.2-12.85c.21-1.24-.2-2.5-1.1-3.38l-9.34-9.1c-2.27-2.21-1.02-6.06,2.12-6.51l12.9-1.87c1.24-.18,2.32-.96,2.87-2.09l5.77-11.69c1.4-2.84,5.45-2.84,6.85,0Z"/>
</svg>