<?xml version="1.0" encoding="UTF-8"?>
<svg id="Layer_1" data-name="Layer 1" xmlns="http://www.w3.org/2000/svg" viewBox="0 0 80 80">
  <path d="M63.24,21.19l-.24,1.78c-.8,5.92-6.24,10.06-12.16,9.27l-1.78-.24c-.57-.08-1.11-.28-1.57-.57-1.01,1.14-1.92,2.55-2.51,4.28-.77,2.23-.8,4.34-.6,5.97h14.77c1.16,0,2.11,.95,2.11,2.11v3.71c0,1.17-.95,2.11-2.11,2.11h-.76l-1.29,17.75c-.18,2.47-2.24,4.37-4.71,4.37h-18.36c-2.47,0-4.52-1.91-4.71-4.37l-1.29-17.75h-.76c-1.16,0-2.11-.94-2.11-2.11v-3.71c0-1.16,.95-2.11,2.11-2.11h12.11c-.54-4.02-1.84-7.87-3.83-11.29-.53-.9-1.09-1.77-1.71-2.61-.14,.36-.33,.69-.59,1l-1.12,1.4c-3.72,4.67-10.52,5.43-15.19,1.7l-1.4-1.11c-1.7-1.37-1.99-3.84-.62-5.55l1.12-1.4c3.24-4.05,8.79-5.16,13.26-2.93,.1,.28,.22,.54,.34,.79,.06-.08,.1-.15,.17-.22,.06-.07,.13-.13,.21-.17-.23-.16-.47-.29-.72-.4-1.77-4.65-.13-10.06,4.21-12.89l1.5-.98c1.82-1.19,4.27-.68,5.46,1.15l.98,1.5c3.26,5,1.85,11.71-3.16,14.97l-1.5,.98c-.29,.2-.6,.33-.91,.44,.72,.96,1.38,1.96,1.97,3,1.76,3.03,3.03,6.35,3.76,9.81,.08-1.26,.33-2.62,.81-4.02,.8-2.32,2.03-4.14,3.37-5.57-.17-.53-.23-1.11-.15-1.71l.24-1.78c.8-5.92,6.24-10.06,12.16-9.27l1.78,.24c2.16,.3,3.67,2.28,3.39,4.44Z"/>
</svg>