<?xml version="1.0" encoding="UTF-8"?>
<svg id="Layer_1" data-name="Layer 1" xmlns="http://www.w3.org/2000/svg" viewBox="0 0 80 80">
  <path d="M57.93,45.76c-.31,1.81-1.07,4.7-3.24,7.35-4.86,5.96-14.14,7.49-21.28,4.46-7.58-3.22-10.16-10.47-10.51-11.52-.52-1.54-2.01-6.64,.06-12.41,2.51-7.02,9.5-12.87,17.63-12.88,6.25-.01,10.68,3.43,12.19,4.73,2.94-2.9,5.88-5.81,8.82-8.71-2-1.78-8.8-7.38-19.18-7.96-1.93-.11-12.9-.55-22.18,7.54-8.33,7.25-12.66,19.08-9.99,30.62,3.14,13.59,15.06,22.76,27.47,24.1,2.33,.25,14.19,1.26,23.64-7.53,12.33-11.47,8.74-28.61,8.56-29.41h-29.25v11.73c5.75-.03,11.51-.07,17.26-.1Z"/>
</svg>