<?xml version="1.0" encoding="UTF-8"?>
<svg id="Layer_1" data-name="Layer 1" xmlns="http://www.w3.org/2000/svg" viewBox="0 0 80 80">
  <path d="M69.4,47.81l-15.89,3.07c-.47,.09-.9,.33-1.21,.69l-10.88,11.98c-1.3,1.44-3.67,.63-3.83-1.29l-2.43-29.37,7.28-5.99-7.99-2.58-.18-2.12c-.16-1.88,1.97-3.08,3.49-1.97l32.51,23.65c1.56,1.13,1.02,3.57-.88,3.94Z"/>
  <polygon points="38.32 27.67 29.77 34.7 27.83 40.7 26.36 45.22 22.61 40.66 19.34 36.68 8.81 33.28 17.36 26.25 20.76 15.73 27.79 24.26 38.32 27.67"/>
</svg>