<svg xmlns="http://www.w3.org/2000/svg" id="Layer_1" data-name="Layer 1" viewBox="0 0 80 80"><path d="M67.96,16.07H12.04c-4.18,0-7.56,3.38-7.56,7.56V59.01c0,4.18,3.38,7.56,7.56,7.56h55.91c4.18,0,7.56-3.38,7.56-7.56V23.63c0-4.18-3.38-7.56-7.56-7.56Zm-35.61,5.29c1.76,0,3.17,1.42,3.17,3.18s-1.41,3.17-3.17,3.17-3.17-1.42-3.17-3.17,1.42-3.18,3.17-3.18Zm-9.2,0c1.75,0,3.17,1.42,3.17,3.18s-1.42,3.17-3.17,3.17-3.17-1.42-3.17-3.17,1.42-3.18,3.17-3.18Zm-9.06,0c1.76,0,3.18,1.42,3.18,3.18s-1.42,3.17-3.18,3.17-3.17-1.42-3.17-3.17,1.42-3.18,3.17-3.18Zm54.32,33.15c0,3.04-2.47,5.51-5.51,5.51H15.53c-3.04,0-5.51-2.46-5.51-5.51v-5.03c0-3.04,2.46-5.51,5.51-5.51H62.9c3.03,0,5.51,2.46,5.51,5.51v5.03Zm-3.79-13.91H13.8c-1.04,0-1.98-.42-2.67-1.11-.69-.69-1.11-1.63-1.11-2.68,0-2.1,1.69-3.79,3.78-3.79h50.82c1.05,0,1.99,.42,2.68,1.11,.69,.69,1.11,1.63,1.11,2.68,0,2.09-1.69,3.79-3.79,3.79Zm-27.38,8.01H17.43c-1.34,0-2.43,1.08-2.43,2.42v1.93c0,1.34,1.09,2.42,2.43,2.42h19.82c1.34,0,2.42-1.08,2.42-2.42v-1.93c0-1.34-1.08-2.42-2.42-2.42Z"></path></svg>