<?xml version="1.0" encoding="UTF-8"?>
<svg id="Layer_1" data-name="Layer 1" xmlns="http://www.w3.org/2000/svg" viewBox="0 0 80 80">
  <path d="M30.66,28.49c-.19-1.37,.76-2.65,2.13-2.84l25.39-3.62,3.72,4.53-28.4,4.06c-1.37,.19-2.65-.76-2.84-2.12Z"/>
  <path d="M68.56,56.55c.2,1.37-.76,2.64-2.13,2.84l-29.15,4.16c-.4,.06-.8,.07-1.18,.02-1.69-.2-3.18-1.33-3.8-2.97l-2.69-7.25s0-.02,0-.03l-9.86-25.5c-.05-.12-.24-.23-.45-.2l-8.33,1.19c-1.36,.19-2.64-.76-2.83-2.13-.2-1.37,.75-2.64,2.13-2.84l8.31-1.19c2.47-.35,4.86,1,5.82,3.3l9.19,23.77,26.6-3.81c.35-.05,.64-.34,.69-.68l2.43-16.96,1.78,2.18,2.41-7.43c.88,1.06,1.28,2.44,1.08,3.83l-2.73,19.09c-.37,2.55-2.4,4.57-4.95,4.95l-25.5,3.64,1.51,4.03,28.82-4.12c1.37-.19,2.65,.76,2.84,2.13Z"/>
  <path d="M35.77,38.11c-.81-.1-1.49-.73-1.61-1.57-.14-1.01,.56-1.94,1.57-2.09l19.14-2.74c1.01-.15,1.94,.56,2.09,1.57,.14,1.01-.56,1.94-1.57,2.09l-19.14,2.74c-.16,.02-.32,.02-.48,0Z"/>
  <path d="M37.89,44.74c-.81-.1-1.49-.73-1.61-1.57-.14-1.01,.56-1.94,1.57-2.09l14.54-2.08c1.01-.15,1.94,.56,2.09,1.57s-.56,1.94-1.57,2.09l-14.54,2.08c-.16,.02-.32,.02-.48,0Z"/>
  <circle cx="38.84" cy="70.52" r="5.11"/>
  <circle cx="61.77" cy="67.24" r="5.11"/>
  <polygon points="71.88 12.46 66.1 17.21 64.78 21.27 63.79 24.33 61.25 21.25 59.04 18.55 51.91 16.25 57.7 11.49 60 4.37 64.75 10.15 71.88 12.46"/>
</svg>