<?xml version="1.0" encoding="UTF-8"?>
<svg id="Layer_1" data-name="Layer 1" xmlns="http://www.w3.org/2000/svg" viewBox="0 0 80 80">
  <path d="M69.84,47.71c-1.69,2.16-2.64,3.48-3.27,4.4-1.13,1.65-1.01,1.6-1.44,2.09-1.17,1.34-2.43,2-5.39,3.37-3.58,1.66-4.52,2.04-4.52,2.04-6.26,2.52-9.39,3.77-9.66,3.83-6.63,1.36-8.64-3.15-19.02-3.09-2.28,.02-4.03,.24-5.6,.59-2.57,.57-4.72,1.46-6.41,2.35-1.39,.73-3.08,.34-4.07-.87-1.34-1.64-2.78-3.96-3.58-6.96-.2-.75-.33-1.47-.43-2.16-.2-1.48,.62-2.91,2.01-3.48,1.24-.51,2.7-1.18,4.28-2.04,5.28-2.86,6.04-4.65,9.77-6.21,4.92-2.04,9.56-1.43,10.94-1.23,4.27,.62,4.56,2.05,11.77,4.57,2.4,.84,4.27,1.49,5.81,1.91h.01c2.02,.8,2.4,1.16,2.62,1.54,.1,.18,.6,1.06,.31,1.89-.25,.73-1.05,1.13-1.44,1.32-.49,.23-1.97,.95-7.25-.31-1.27-.3-2.19-.59-2.92-.81-1.32-.41-2.27-.72-3.84-.67-1.55,.02-3.09,.34-4.59,.93-.58,.22-.85,.86-.63,1.44,.22,.56,.86,.84,1.44,.62,1.25-.49,2.54-.75,3.82-.77,1.23-.01,1.91,.19,3.15,.58,.76,.23,1.71,.53,3.06,.85,2.41,.58,4.17,.79,5.49,.79,1.6,0,2.56-.31,3.24-.65,.54-.27,2-.97,2.56-2.57,.58-1.65-.17-3.17-.48-3.69,.02,0,.06,0,.08-.01,3.57-.79,8.37-3.96,11.4-6.63,.84-.75,2.36-2.17,4-1.85,1.05,.2,2.07,1.08,2.39,2.16,.53,1.74-.97,3.38-3.63,6.75Z"/>
  <path d="M64.78,28.65l-1.53,1.6-7.01,7.34c-1.68,1.76-4.49,1.76-6.18,0l-7.01-7.34-1.35-1.41c-2.77-2.9-2.85-7.72,.05-10.5,1.41-1.36,3.24-2.03,5.05-2.03,1.93,0,3.85,.76,5.29,2.26l1.06,1.11,1.06-1.11c1.44-1.5,3.36-2.26,5.29-2.26,1.81,0,3.63,.67,5.04,2.02,2.92,2.79,3.02,7.41,.24,10.33Z"/>
</svg>