<svg xmlns="http://www.w3.org/2000/svg" id="Layer_1" data-name="Layer 1" viewBox="0 0 301.63 60.29"><defs><style>      .cls-1 {        fill: #fff;      }    </style></defs><g><path class="cls-1" d="M13.51,13.53v30.42c-.03,1.83-2.01,3.23-3.64,3.17-1.39-.06-2.64-1.18-2.87-2.71C4.67,45.3,2.34,46.2,0,47.1c.29,.86,1.53,4.25,5.11,6.25,.38,.21,5.24,2.82,10.26,.24,3.57-1.84,5.84-5.59,5.89-9.7V13.53h-7.75ZM17.1,.46c-2.63,0-4.68,1.94-4.68,4.51s2.05,4.51,4.68,4.51,4.74-1.94,4.74-4.51S19.78,.46,17.1,.46Z"></path><path class="cls-1" d="M129.75,.45c-2.63,0-4.68,1.94-4.68,4.51s2.05,4.51,4.68,4.51,4.74-1.94,4.74-4.51-2.06-4.51-4.74-4.51Zm-3.58,13.07v29.85h7.74V13.53h-7.74Z"></path><path class="cls-1" d="M177.86,.45c-2.63,0-4.68,1.94-4.68,4.51s2.05,4.51,4.68,4.51,4.74-1.94,4.74-4.51-2.06-4.51-4.74-4.51Zm-3.58,13.07v29.85h7.74V13.53h-7.74Z"></path><path class="cls-1" d="M82.42,13.27c-2.51,5.75-5.02,11.49-7.53,17.23-2.13-5.75-4.26-11.49-6.4-17.23h-8.9c6.81,15.45,9.74,22.04,10.06,22.75,.01,.02,.04,.08,.08,.18,0,0,.61,1.54,.67,3.24,.05,1.56-1.05,4.59-3.35,7.4-1.94,2.37-4.19,3.9-6.1,4.88,3.23,.29,5.75-.28,7.23-.73,5.31-1.63,8.52-5.21,9.33-6.62,.05-.09,.54-.95,1.08-2.1,.38-.81,.64-1.44,.78-1.78,.18-.46,.3-.8,.32-.85,3.55-8.78,7.1-17.56,10.66-26.34h-7.93Z"></path><path class="cls-1" d="M199.41,37.32c-2.11,0-3.31-1.14-3.31-3.54v-13.61h6.28v-6.65h-6.28V4.97h-8.22v29.56c0,6.22,3.37,9.42,9.64,9.42,2.23,0,3.88-.4,5.02-.8v-6.39c-.97,.4-1.88,.57-3.14,.57Z"></path><path class="cls-1" d="M247.98,0C244.66,0,241.97,2.69,241.97,6.01V43.37h8.22V0h-2.21Z"></path><path class="cls-1" d="M55.32,12.84c-3.32,0-6.01,2.69-6.01,6.01v.39c-2.44-3.76-6.3-6.2-10.64-6.2-7.38,0-13.36,7-13.36,15.64s5.98,15.63,13.36,15.63c4.35,0,8.21-2.43,10.64-6.2v5.25h7.88V12.84h-1.87Zm-15.1,24.26c-4.31,0-7.79-3.82-7.79-8.53s3.49-8.53,7.79-8.53,7.8,3.82,7.8,8.53-3.49,8.53-7.8,8.53Z"></path><path class="cls-1" d="M234.63,12.84c-3.32,0-6.01,2.69-6.01,6.01v.38c-2.44-3.76-6.3-6.19-10.64-6.19-7.38,0-13.36,7-13.36,15.64s5.98,15.63,13.36,15.63c4.34,0,8.21-2.43,10.64-6.19v5.24h7.88V12.84h-1.87Zm-15.1,24.26c-4.31,0-7.79-3.82-7.79-8.53s3.49-8.53,7.79-8.53,7.79,3.82,7.79,8.53-3.49,8.53-7.79,8.53Z"></path><path class="cls-1" d="M167.68,12.84c-3.32,0-6.01,2.69-6.01,6.01v.38c-2.44-3.76-6.3-6.19-10.64-6.19-7.38,0-13.36,7-13.36,15.64s5.98,15.63,13.36,15.63c4.34,0,8.21-2.43,10.64-6.19v5.24h0v2.29c-.12,.68-.84,4.5-4.12,6.35-1.6,.9-3.17,.99-3.98,1.04-1.33,.08-3.44,.19-5.34-1.2-2.02-1.48-2.54-3.73-2.66-4.42h-7.48c.16,1.58,.66,4.3,2.52,6.87,4.15,5.72,12.45,7.13,18.53,5.1,1.2-.4,4.61-1.59,7.3-5.04,2.77-3.55,3.07-7.34,3.12-8.7V12.84h-1.87Zm-15.1,24.26c-4.31,0-7.8-3.82-7.8-8.53s3.49-8.53,7.8-8.53,7.79,3.82,7.79,8.53-3.49,8.53-7.79,8.53Z"></path><path class="cls-1" d="M113.46,2.68V19.24c-2.44-3.76-6.3-6.2-10.65-6.2-7.38,0-13.36,7-13.36,15.64s5.98,15.63,13.36,15.63c4.35,0,8.21-2.43,10.65-6.2v5.25h7.88V2.68h-7.88Zm-9.09,34.42c-4.31,0-7.79-3.82-7.79-8.53s3.49-8.53,7.79-8.53,7.79,3.82,7.79,8.53-3.49,8.53-7.79,8.53Z"></path></g><path class="cls-1" d="M261.65,44.17c-.76,0-1.41-.27-1.96-.82s-.82-1.2-.82-1.96,.27-1.42,.82-1.96,1.2-.82,1.96-.82,1.41,.27,1.96,.82c.54,.54,.82,1.2,.82,1.96,0,.5-.13,.97-.38,1.39s-.58,.76-1,1.01-.88,.38-1.4,.38Z"></path><path class="cls-1" d="M273.2,17.36c-.81,0-1.51-.28-2.1-.84-.58-.56-.88-1.23-.88-2.02s.29-1.46,.88-2.01,1.29-.84,2.1-.84,1.52,.28,2.1,.84,.88,1.23,.88,2.01-.29,1.46-.88,2.02c-.58,.56-1.29,.84-2.1,.84Z"></path><rect class="cls-1" x="270.73" y="21.69" width="4.88" height="22.23"></rect><path class="cls-1" d="M290.9,44.26c-2.14,0-4.01-.45-5.62-1.35s-2.86-2.16-3.77-3.78c-.9-1.62-1.35-3.52-1.35-5.68s.45-4.09,1.35-5.72c.9-1.63,2.16-2.9,3.77-3.8s3.48-1.35,5.62-1.35,4.01,.45,5.62,1.35,2.86,2.17,3.76,3.8c.9,1.63,1.35,3.54,1.35,5.72s-.45,4.06-1.35,5.68c-.9,1.62-2.15,2.88-3.76,3.78s-3.48,1.35-5.62,1.35Zm0-3.95c1.41,0,2.57-.32,3.48-.96s1.58-1.48,2.02-2.52c.44-1.04,.65-2.17,.65-3.38s-.22-2.35-.65-3.39c-.44-1.05-1.11-1.9-2.02-2.55-.91-.65-2.07-.97-3.48-.97s-2.57,.32-3.48,.97c-.91,.65-1.58,1.49-2.02,2.55-.44,1.05-.66,2.18-.66,3.39s.22,2.34,.66,3.38c.44,1.04,1.11,1.88,2.02,2.52,.91,.64,2.07,.96,3.48,.96Z"></path></svg>